#N canvas 67 11 772 604 16;
#X declare -path ./shared;
#X obj 120 160 noise~;
#X obj 30 540 output~;
#X obj 120 250 vcf~;
#X obj 30 450 *~;
#X obj 340 10 bng 56 250 50 0 empty empty 🥁 8 24 0 33 #dcd3cb #e3bb9d
#ffffff;
#X obj -50 340 *~;
#X obj -120 70 midi-c 71 1 3 Resonance;
#X obj -120 10 midi-c 74 200 1 Cutoff;
#X obj 30 10 midi-c 72 4 1 Decay;
#X obj 30 40 s d;
#X obj 150 300 r t;
#X obj 340 70 s t;
#X obj -20 240 r t;
#X obj 30 180 r d;
#X obj -120 100 s r;
#X obj 140 190 r c;
#X obj 160 220 r r;
#X obj -120 40 s c;
#X obj 200 300 r d;
#X obj -100 140 osc~ 180;
#X obj 30 100 s o;
#X obj 130 450 r o;
#X obj 30 490 overdrive~;
#X obj 30 220 * 0.8;
#X obj -80 180 osc~ 330;
#X obj 180 40 s m;
#X obj 180 10 midi-c 75 1 127 Mix;
#X obj 90 360 r m;
#X obj 30 410 mix;
#X obj 410 10 declare -path ./shared;
#X obj 30 70 midi-c 73 0 1 Drive;
#X obj 150 350 rel 2;
#X obj -20 300 rel 2;
#X obj -100 240 *~ 0.5;
#X connect 0 0 2 0;
#X connect 2 0 28 1;
#X connect 3 0 22 0;
#X connect 4 0 11 0;
#X connect 5 0 28 0;
#X connect 6 0 14 0;
#X connect 7 0 17 0;
#X connect 8 0 9 0;
#X connect 10 0 31 0;
#X connect 12 0 32 0;
#X connect 13 0 23 0;
#X connect 15 0 2 1;
#X connect 16 0 2 2;
#X connect 18 0 31 1;
#X connect 19 0 33 0;
#X connect 21 0 22 1;
#X connect 22 0 1 0;
#X connect 22 0 1 1;
#X connect 23 0 32 1;
#X connect 24 0 33 0;
#X connect 26 0 25 0;
#X connect 27 0 28 2;
#X connect 28 0 3 0;
#X connect 30 0 20 0;
#X connect 31 0 3 1;
#X connect 32 0 5 1;
#X connect 33 0 5 0;
