#N canvas 1300 204 433 656 10;
#X obj 9 219 inlet;
#X obj 9 244 select 0;
#X obj 114 523 outlet~;
#X obj 141 427 pack f f f;
#X msg 141 457 1 \$1 \, \$2 \$3 \$1;
#X msg 57 457 0 \$1;
#X floatatom 57 386 5 0 0 0 - - -;
#X obj 112 180 hsl 128 15 0 2000 0 0 \$0_r_out \$0_r_in Release -2
-8 0 10 -262144 -1 -1 4699 1;
#X obj 113 87 hsl 128 15 0 2000 0 0 \$0_a_out \$0_a_in Attack -2 -8
0 10 -262144 -1 -1 1102 1;
#X obj 112 117 hsl 128 15 0 2000 0 0 \$0_d_out \$0_d_in Decay -2 -8
0 10 -262144 -1 -1 4998 1;
#X obj 112 150 hsl 128 15 0.1 1 0 0 \$0_s_out \$0_s_in Sustain -2 -8
0 10 -262144 -1 -1 12381 1;
#X obj 103 397 f;
#X obj 103 280 bng 15 250 50 0 empty empty empty 17 7 0 10 -262144
-1 -1;
#X obj 189 356 f;
#X obj 280 324 f;
#X obj 9 340 f;
#X obj 9 276 bng 15 250 50 0 empty empty empty 17 7 0 10 -262144 -1
-1;
#X obj 114 500 vline~;
#X obj 5 46 loadbang;
#X obj 46 70 \$1;
#X obj 46 100 \$2;
#X obj 46 133 \$3;
#X obj 46 163 \$4;
#X text 26 265 OFF;
#X text 120 264 ON;
#X obj 87 5 inlet;
#X obj 153 6 inlet;
#X obj 219 6 inlet;
#X obj 284 6 inlet;
#X obj 118 376 r \$0_a_out;
#X obj 87 28 s \$0_a_in;
#X text 12 202 Note velocity;
#X obj 153 28 s \$0_d_in;
#X obj 219 28 s \$0_s_in;
#X obj 284 28 s \$0_r_in;
#X obj 295 301 r \$0_d_out;
#X obj 204 335 r \$0_s_out;
#X obj 32 309 r \$0_r_out;
#X connect 0 0 1 0;
#X connect 1 0 16 0;
#X connect 1 1 12 0;
#X connect 3 0 4 0;
#X connect 4 0 17 0;
#X connect 5 0 17 0;
#X connect 6 0 5 0;
#X connect 11 0 3 0;
#X connect 12 0 11 0;
#X connect 12 0 13 0;
#X connect 12 0 14 0;
#X connect 13 0 3 1;
#X connect 14 0 3 2;
#X connect 15 0 6 0;
#X connect 16 0 15 0;
#X connect 17 0 2 0;
#X connect 18 0 19 0;
#X connect 18 0 20 0;
#X connect 18 0 21 0;
#X connect 18 0 22 0;
#X connect 19 0 8 0;
#X connect 20 0 9 0;
#X connect 21 0 10 0;
#X connect 22 0 7 0;
#X connect 25 0 30 0;
#X connect 26 0 32 0;
#X connect 27 0 33 0;
#X connect 28 0 34 0;
#X connect 29 0 11 1;
#X connect 35 0 14 1;
#X connect 36 0 13 1;
#X connect 37 0 6 0;
#X connect 37 0 15 1;
#X coords 0 -1 1 1 150 150 1 100 50;
