#N canvas 1255 25 445 401 10;
#X obj 37 -220 inlet~;
#X obj 88 -68 sig~;
#X obj 89 -4 outlet~;
#X obj -2 -117 *~ \$1;
#X obj 173 -113 *~ \$1;
#X obj 204 -155 delwrite~ \$0_deltabr 4000;
#X obj 37 -154 delwrite~ \$0_deltabl 4000;
#X obj 88 -91 inlet;
#X obj 272 -89 inlet;
#X obj 89 -40 vd~ \$0_deltabl;
#X obj 272 -64 sig~;
#X obj 273 -6 outlet~;
#X obj 272 -39 vd~ \$0_deltabr;
#X connect 0 0 5 0;
#X connect 0 0 6 0;
#X connect 1 0 9 0;
#X connect 3 0 6 0;
#X connect 4 0 5 0;
#X connect 7 0 1 0;
#X connect 8 0 10 0;
#X connect 9 0 2 0;
#X connect 9 0 3 0;
#X connect 10 0 12 0;
#X connect 12 0 11 0;
#X connect 12 0 4 0;
