#N canvas 699 644 450 286 10;
#X obj 102 68 r mco_\$1;
#X msg 105 181 0 add mci_\$1 \$2;
#X obj 99 114 f;
#X obj 107 153 pack \$1 f;
#X obj 30 107 r bi;
#X obj 125 233 s bo;
#X connect 0 0 2 1;
#X connect 1 0 5 0;
#X connect 2 0 3 1;
#X connect 3 0 1 0;
#X connect 4 0 2 0;
#X connect 4 0 3 0;
