#N canvas 344 151 630 358 10;
#X obj 184 121 *~;
#X obj 162 168 *~;
#X obj 337 40 inlet;
#X obj 162 199 *~ 0;
#X obj 212 199 *~ 0;
#X obj 262 199 *~ 0;
#X obj 478 19 loadbang;
#X obj 479 41 1;
#X obj 316 199 sig~;
#X obj 163 237 outlet~;
#X obj 163 37 clip~ -1 1;
#X obj 164 9 inlet~;
#X obj 300 100 cnv 15 185 45 empty empty empty 20 12 0 14 -261234 -66577
0;
#X floatatom 338 123 5 0 0 0 - - -;
#X floatatom 373 123 5 0 0 0 - - -;
#X floatatom 408 123 5 0 0 0 - - -;
#X floatatom 442 123 5 0 0 0 - - -;
#X text 306 102 f(x) = ax^3 + bx^2 + cx + d;
#X obj 442 190 * -1;
#X obj 338 66 unpack f f f f;
#X connect 0 0 1 1;
#X connect 0 0 4 0;
#X connect 1 0 3 0;
#X connect 2 0 19 0;
#X connect 3 0 9 0;
#X connect 4 0 9 0;
#X connect 5 0 9 0;
#X connect 6 0 7 0;
#X connect 7 0 15 0;
#X connect 8 0 9 0;
#X connect 10 0 0 0;
#X connect 10 0 0 1;
#X connect 10 0 1 0;
#X connect 10 0 5 0;
#X connect 11 0 10 0;
#X connect 13 0 3 1;
#X connect 14 0 4 1;
#X connect 14 0 18 0;
#X connect 15 0 5 1;
#X connect 16 0 8 0;
#X connect 18 0 16 0;
#X connect 19 0 13 0;
#X connect 19 1 14 0;
#X connect 19 2 15 0;
#X connect 19 3 16 0;
#X coords 0 -1 1 1 185 45 1 300 100;
