#N canvas 1063 259 450 433 10;
#X obj 40 383 outlet;
#X obj 224 21 tgl 15 1 empty empty empty 17 7 0 10 -262144 -1 -1 1
1;
#X obj 109 46 hsl 128 15 0.1 5 0 0 empty empty Speed -2 -8 0 10 -262144
-1 -1 4924 1;
#X obj 109 76 hsl 128 15 1 127 0 0 empty empty Note -2 -8 0 10 -262144
-1 -1 1048 1;
#X obj 109 108 hsl 128 15 50 5000 0 0 empty empty Duration -2 -8 0
10 -262144 -1 -1 898 1;
#X obj 123 357 outlet;
#X msg 143 308 0;
#X obj 116 260 delay;
#X obj 37 223 metro 1000;
#X obj 57 196 * 1000;
#X obj 40 322 f;
#X obj 41 350 mtof;
#X msg 108 308 1;
#X obj 12 11 loadbang;
#X obj 32 64 \$1;
#X obj 35 101 \$2;
#X obj 37 131 \$3;
#X connect 1 0 8 0;
#X connect 2 0 9 0;
#X connect 3 0 10 1;
#X connect 4 0 7 1;
#X connect 6 0 5 0;
#X connect 7 0 6 0;
#X connect 8 0 7 0;
#X connect 8 0 12 0;
#X connect 8 0 10 0;
#X connect 9 0 8 1;
#X connect 10 0 11 0;
#X connect 11 0 0 0;
#X connect 12 0 5 0;
#X connect 13 0 14 0;
#X connect 13 0 15 0;
#X connect 13 0 16 0;
#X connect 14 0 2 0;
#X connect 15 0 3 0;
#X connect 16 0 4 0;
#X coords 0 -1 1 1 150 120 1 100 10;
