#N canvas 897 63 689 592 10;
#X obj 62 82 hsl 128 15 0.1 20 0 0 \$0_rate empty Rate -2 -8 0 10 -240696
-1 -1 1945 1;
#X obj 71 226 osc~;
#X obj 108 226 osc-sq~;
#X obj 60 39 hradio 15 1 0 6 \$0_wf empty Shape 0 -8 0 10 -240696 -98783
-1 3;
#X obj 124 132 r \$0_rate;
#X obj 83 388 outlet;
#X obj 21 263 r \$0_wf;
#X obj 83 329 clip~ -1 1;
#X obj 227 226 osc-tri~;
#X obj 201 106 inlet;
#X obj 246 160 bng 15 250 50 0 empty empty empty 17 7 0 10 -262144
-1 -1;
#X obj 201 133 select 0;
#X msg 92 205 0;
#X obj 288 226 osc-rand~;
#X obj 356 226 noise~;
#X obj 83 297 multiplex~ 1 2 3 4 5 6;
#X text 55 51 Si Sq Sw Tr Rn Ns;
#X obj 6 53 inlet;
#X obj 9 13 inlet;
#X obj 83 362 unsig~ 10;
#X obj 164 226 osc-saw~;
#X connect 1 0 15 0;
#X connect 2 0 15 1;
#X connect 4 0 2 0;
#X connect 4 0 8 0;
#X connect 4 0 1 0;
#X connect 4 0 13 0;
#X connect 4 0 20 0;
#X connect 6 0 15 0;
#X connect 7 0 19 0;
#X connect 8 0 15 3;
#X connect 9 0 11 0;
#X connect 10 0 2 1;
#X connect 10 0 12 0;
#X connect 10 0 8 1;
#X connect 10 0 13 1;
#X connect 10 0 20 1;
#X connect 11 1 10 0;
#X connect 12 0 1 1;
#X connect 13 0 15 4;
#X connect 14 0 15 5;
#X connect 15 0 7 0;
#X connect 17 0 0 0;
#X connect 18 0 3 0;
#X connect 19 0 5 0;
#X connect 20 0 15 2;
#X coords 0 -1 1 1 150 90 1 50 10;
