#N canvas 1301 205 545 454 10;
#X obj 5 302 outlet;
#X obj -28 99 ctlin \$1;
#X obj -28 216 s \$0_knob_in;
#X obj 53 302 s \$0_val;
#X floatatom 53 266 5 0 0 0 - - -;
#X obj 53 217 / 127;
#X obj 53 243 * \$2;
#X obj 99 99 r \$0_knob_out;
#X obj 26 30 knob 32 32 0 127 0 0 \$0_knob_out \$0_knob_in empty 12
26 0 8 -262144 -39508 -128992 635 1;
#X floatatom 25 67 5 0 0 0 - #0_val #0_dummy;
#X obj 170 234 f;
#X obj 140 261 pack \$1 f;
#X obj 140 311 s bankout;
#X obj 140 174 r savebank;
#X obj 29 99 r _bank_\$1;
#X msg 140 285 add \$1 _bank_\$1 \$2;
#X obj 54 175 * 1;
#X connect 1 0 16 0;
#X connect 1 0 2 0;
#X connect 4 0 3 0;
#X connect 4 0 0 0;
#X connect 5 0 6 0;
#X connect 6 0 4 0;
#X connect 7 0 16 0;
#X connect 10 0 11 1;
#X connect 11 0 15 0;
#X connect 13 0 10 0;
#X connect 13 0 11 0;
#X connect 14 0 16 0;
#X connect 14 0 2 0;
#X connect 15 0 12 0;
#X connect 16 0 10 1;
#X connect 16 0 5 0;
#X coords 0 -1 1 1 65 75 1 10 10;
