#N canvas 160 720 770 300 10;
#X obj -106 17 ctlin \$1;
#X obj -26 19 ctlin \$2;
#X msg -106 63 bang;
#X msg -26 66 bang;
#X obj -74 157 t b f;
#X obj -106 42 sel 0;
#X obj -26 45 sel 0;
#X obj -133 219 outlet;
#X obj -74 180 v \$0_val;
#X obj -26 88 v \$0_val;
#X obj -106 85 v \$0_val;
#X floatatom 95 68 5 0 0 0 - #0_show -;
#X obj -69 217 s \$0_show;
#X obj -106 107 + \$3;
#X obj -26 110 - \$3;
#X obj -74 136 clip 0 \$4;
#X obj 95 32 knob 32 32 0 1 0 0 \$0_knob_out \$0_knob_v empty 0 -8
0 8 -262144 -159808 -1 0 1;
#X obj 17 215 / \$4;
#X obj 17 244 s \$0_knob_v;
#X obj -221 95 r \$0_knob_out;
#X obj -221 117 * \$4;
#X obj -221 165 v \$0_val;
#X obj -221 216 s \$0_show;
#X obj -221 140 t b f;
#X obj 191 129 f;
#X obj 161 156 pack \$1 f;
#X obj 185 208 s bankout;
#X obj 161 92 r savebank;
#X obj 186 9 r _bank_\$1;
#X msg 161 180 add \$1 _bank_\$1 \$2;
#X obj 186 32 s \$0_bankin;
#X obj 249 125 r \$0_bankin;
#X obj 17 183 r \$0_bankin;
#X obj -157 165 r \$0_bankin;
#X obj 237 96 r \$0_show;
#X connect 0 0 5 0;
#X connect 1 0 6 0;
#X connect 2 0 10 0;
#X connect 3 0 9 0;
#X connect 4 0 8 0;
#X connect 4 1 8 0;
#X connect 5 0 2 0;
#X connect 6 0 3 0;
#X connect 8 0 12 0;
#X connect 8 0 7 0;
#X connect 8 0 17 0;
#X connect 9 0 14 0;
#X connect 10 0 13 0;
#X connect 13 0 15 0;
#X connect 14 0 15 0;
#X connect 15 0 4 0;
#X connect 17 0 18 0;
#X connect 19 0 20 0;
#X connect 20 0 23 0;
#X connect 21 0 22 0;
#X connect 21 0 7 0;
#X connect 23 0 21 0;
#X connect 23 1 21 0;
#X connect 24 0 25 1;
#X connect 25 0 29 0;
#X connect 27 0 24 0;
#X connect 27 0 25 0;
#X connect 28 0 30 0;
#X connect 29 0 26 0;
#X connect 31 0 25 1;
#X connect 32 0 17 0;
#X connect 33 0 7 0;
#X connect 33 0 22 0;
#X connect 34 0 24 1;
#X coords 0 -1 1 1 65 75 1 80 10;
