#N canvas 87 226 450 300 10;
#X obj 40 45 inlet~;
#X obj 102 47 inlet~;
#X obj 238 54 inlet~;
#X obj 49 88 inlet~;
#X obj 123 82 inlet~;
#X obj 282 85 inlet~;
#X obj 118 181 *~ 0.33;
#X obj 29 125 *~;
#X obj 100 123 *~;
#X obj 240 125 *~;
#X obj 119 229 outlet~;
#X obj 120 204 lop~ 4600;
#X connect 0 0 7 0;
#X connect 1 0 8 0;
#X connect 2 0 9 0;
#X connect 3 0 7 1;
#X connect 4 0 8 1;
#X connect 5 0 9 1;
#X connect 6 0 11 0;
#X connect 7 0 6 0;
#X connect 8 0 6 0;
#X connect 9 0 6 0;
#X connect 11 0 10 0;
