#N canvas 87 226 450 300 10;
#X obj 40 82 inlet~;
#X obj 101 82 inlet~;
#X obj 169 82 inlet~;
#X obj 55 106 inlet~;
#X obj 116 106 inlet~;
#X obj 184 106 inlet~;
#X obj 40 131 *~;
#X obj 101 131 *~;
#X obj 170 131 *~;
#X obj 117 254 outlet~;
#X obj 241 82 inlet~;
#X obj 256 106 inlet~;
#X obj 242 131 *~;
#X obj 117 228 hip~ 5;
#X obj 118 182 *~ 0.25;
#X obj 257 175 inlet;
#X obj 117 205 *~;
#X connect 0 0 6 0;
#X connect 1 0 7 0;
#X connect 2 0 8 0;
#X connect 3 0 6 1;
#X connect 4 0 7 1;
#X connect 5 0 8 1;
#X connect 6 0 14 0;
#X connect 7 0 14 0;
#X connect 8 0 14 0;
#X connect 10 0 12 0;
#X connect 11 0 12 1;
#X connect 12 0 14 0;
#X connect 13 0 9 0;
#X connect 14 0 16 0;
#X connect 15 0 16 1;
#X connect 16 0 13 0;
