#N canvas 18 279 450 300 10;
#X obj 96 74 metro;
#X obj 59 46 loadbang;
#X obj 96 144 - 1;
#X obj 96 170 sig~;
#X obj 229 32 inlet;
#X obj 96 195 outlet~;
#X obj 96 97 random 2000;
#X obj 96 120 / 1000;
#X floatatom 221 179 5 0 0 0 - - -;
#X obj 210 69 pow -1;
#X obj 248 138 * 1000;
#X obj 339 37 inlet;
#X connect 0 0 6 0;
#X connect 1 0 0 0;
#X connect 2 0 3 0;
#X connect 3 0 5 0;
#X connect 4 0 9 0;
#X connect 6 0 7 0;
#X connect 7 0 2 0;
#X connect 8 0 0 1;
#X connect 9 0 10 0;
#X connect 10 0 8 0;
#X connect 11 0 0 0;
