#N canvas 610 653 450 306 10;
#X obj -15 104 phasor~;
#X obj -15 76 inlet;
#X obj -14 214 outlet~;
#X obj 23 39 hsl 128 15 0.001 0.999 0 0 empty empty Pulsewidth 70 -8
0 10 -204800 -1 -1 3805 1;
#X obj 20 -34 loadbang;
#X obj 20 -12 \$1;
#X obj -14 153 -~ 0.5;
#X obj -15 182 *~ 2;
#X obj -15 126 expr~ $v1 > $v2;
#X obj 88 76 inlet;
#X obj 105 125 f;
#X connect 0 0 8 0;
#X connect 1 0 0 0;
#X connect 3 0 8 1;
#X connect 4 0 5 0;
#X connect 5 0 3 0;
#X connect 6 0 7 0;
#X connect 7 0 2 0;
#X connect 8 0 6 0;
#X connect 9 0 8 1;
#X connect 9 0 10 0;
#X connect 10 0 3 0;
#X coords 0 -1 1 1 150 50 1 10 10;
