#N canvas 656 122 450 505 10;
#X obj -15 104 phasor~;
#X obj -17 80 inlet;
#X obj -10 214 outlet~;
#X obj -15 126 expr~ $v1 > 0.5;
#X obj -10 153 -~ 0.5;
#X obj -9 185 *~ 2;
#X obj 94 54 inlet;
#X msg 51 80 0;
#X connect 0 0 3 0;
#X connect 1 0 0 0;
#X connect 3 0 4 0;
#X connect 4 0 5 0;
#X connect 5 0 2 0;
#X connect 6 0 7 0;
#X connect 7 0 0 1;
