#N canvas 261 236 764 485 10;
#X obj -35 173 dac~;
#X obj -51 -32 inlet~;
#X obj 15 -32 inlet~;
#X obj -53 72 *~;
#X obj 17 72 *~;
#X obj 157 41 hsl 128 15 0 5 0 1 empty empty Volume -2 -8 0 10 -261682
-1 -1 2540 1;
#X obj 272 16 tgl 15 1 empty empty DSP -22 7 0 10 -261682 -13381 -1
1 1;
#X msg 304 62 \; pd dsp 1;
#X msg 372 62 \; pd dsp 0;
#X obj 319 38 select 1;
#X obj -89 138 outlet~;
#X obj 181 -36 loadbang;
#X obj 156 -12 \$1;
#X obj 200 -12 \$2;
#X obj 66 -33 inlet~;
#X obj 16 33 *~;
#X obj -52 35 *~;
#X obj 16 126 clip~ -1 1;
#X obj -53 100 clip~ -1 1;
#X obj 15 163 outlet~;
#X obj 115 -33 inlet;
#X text -48 -54 Left-In Right-In Envelope Volume;
#X connect 1 0 16 0;
#X connect 2 0 15 0;
#X connect 3 0 18 0;
#X connect 4 0 17 0;
#X connect 5 0 4 1;
#X connect 5 0 3 1;
#X connect 6 0 9 0;
#X connect 9 0 7 0;
#X connect 9 1 8 0;
#X connect 11 0 12 0;
#X connect 11 0 13 0;
#X connect 12 0 5 0;
#X connect 13 0 6 0;
#X connect 14 0 15 1;
#X connect 14 0 16 1;
#X connect 15 0 4 0;
#X connect 16 0 3 0;
#X connect 17 0 0 1;
#X connect 17 0 19 0;
#X connect 18 0 0 0;
#X connect 18 0 10 0;
#X connect 20 0 5 0;
#X coords 0 -1 1 1 140 50 1 150 10;
