#N canvas 1175 99 677 494 10;
#X obj 191 363 freeverb~;
#X obj 212 186 inlet;
#X obj 146 260 inlet~;
#X obj 231 415 outlet~;
#X msg 212 218 roomsize \$1;
#X obj 303 187 inlet;
#X obj 367 185 inlet;
#X msg 303 219 wet \$1;
#X msg 367 217 dry \$1;
#X obj 429 184 inlet;
#X obj 493 182 inlet;
#X msg 429 216 width \$1;
#X msg 493 214 damping \$1;
#X connect 0 0 3 0;
#X connect 0 1 3 0;
#X connect 1 0 4 0;
#X connect 2 0 0 0;
#X connect 2 0 0 1;
#X connect 4 0 0 0;
#X connect 5 0 7 0;
#X connect 6 0 8 0;
#X connect 7 0 0 0;
#X connect 8 0 0 0;
#X connect 9 0 11 0;
#X connect 10 0 12 0;
#X connect 11 0 0 0;
#X connect 12 0 0 0;
