#N canvas 841 108 1007 528 10;
#X obj 472 55 tgl 24 0 \$0_on empty Play -36 12 0 14 -216682 -13381
-1 1 1;
#X floatatom 287 197 5 0 0 0 - - -;
#X obj 106 107 bng 15 250 50 0 __0 empty empty 17 7 0 10 -1 -4034 -1
;
#X obj 130 107 bng 15 250 50 0 __1 empty empty 17 7 0 10 -1 -4034 -1
;
#X obj 314 366 outlet;
#X obj 154 107 bng 15 250 50 0 __2 empty empty 17 7 0 10 -1 -4034 -1
;
#X obj 178 107 bng 15 250 50 0 __3 empty empty 17 7 0 10 -1 -4034 -1
;
#X obj 202 107 bng 15 250 50 0 __4 empty empty 17 7 0 10 -1 -257985
-1;
#X obj 226 107 bng 15 250 50 0 __5 empty empty 17 7 0 10 -1 -257985
-1;
#X obj 250 107 bng 15 250 50 0 __6 empty empty 17 7 0 10 -1 -257985
-1;
#X obj 274 107 bng 15 250 50 0 __7 empty empty 17 7 0 10 -1 -257985
-1;
#X obj 299 107 bng 15 250 50 0 __8 empty empty 17 7 0 10 -1 -260097
-1;
#X obj 323 107 bng 15 250 50 0 __9 empty empty 17 7 0 10 -1 -260097
-1;
#X obj 347 107 bng 15 250 50 0 __10 empty empty 17 7 0 10 -1 -260097
-1;
#X obj 371 107 bng 15 250 50 0 __11 empty empty 17 7 0 10 -1 -260097
-1;
#X obj 396 107 bng 15 250 50 0 __12 empty empty 17 7 0 10 -1 -258113
-1;
#X obj 420 107 bng 15 250 50 0 __13 empty empty 17 7 0 10 -1 -258113
-1;
#X obj 444 107 bng 15 250 50 0 __14 empty empty 17 7 0 10 -1 -258113
-1;
#X obj 468 107 bng 15 250 50 0 __15 empty empty 17 7 0 10 -1 -258113
-1;
#X obj 314 342 mtof;
#X obj 314 319 line;
#X obj 314 297 pack 1 0;
#X obj 359 274 inlet;
#X obj 167 -42 f 0;
#X obj 208 -42 + 1;
#X obj 167 -13 mod 16;
#X obj 409 345 outlet;
#X msg 425 306 0;
#X obj 396 239 bng 15 250 50 0 empty empty empty 17 7 0 10 -262144
-1 -1;
#X obj 109 82 hsl 128 15 50 300 0 0 \$0_speed \$0_speed_in Speed -2
-8 0 10 -216682 -33289 -1 12500 1;
#X obj 246 82 hsl 64 15 0 1 0 0 \$0_gate empty Gate -2 -8 0 10 -216682
-33289 -1 4800 1;
#X floatatom 106 128 3 0 127 0 - __0 -;
#X floatatom 130 128 3 0 127 0 - __1 -;
#X floatatom 154 128 3 0 127 0 - __2 -;
#X floatatom 178 128 3 0 127 0 - __3 -;
#X floatatom 202 128 3 0 127 0 - __4 -;
#X floatatom 226 128 3 0 127 0 - __5 -;
#X floatatom 250 128 3 0 127 0 - __6 -;
#X floatatom 274 128 3 0 127 0 - __7 -;
#X floatatom 299 128 3 0 127 0 - __8 -;
#X floatatom 323 128 3 0 127 0 - __9 -;
#X floatatom 347 128 3 0 127 0 - __10 -;
#X floatatom 371 128 3 0 127 0 - __11 -;
#X floatatom 396 128 3 0 127 0 - __12 -;
#X floatatom 420 128 3 0 127 0 - __13 -;
#X floatatom 444 128 3 0 127 0 - __14 -;
#X floatatom 468 128 3 0 127 0 - __15 -;
#X obj 287 222 sel 0;
#X obj 194 -119 r \$0_speed;
#X obj 452 255 *;
#X floatatom 316 81 5 0 0 0 - #0_speed -;
#X obj 232 -71 s \$0_metro;
#X obj 167 -72 metro;
#X obj 424 182 r \$0_gate;
#X obj 497 182 r \$0_metro;
#X obj 452 228 f;
#X obj 482 227 f;
#X obj 476 205 bng 15 250 50 0 empty empty empty 17 7 0 10 -262144
-1 -1;
#X msg 396 307 1;
#X obj 516 -111 notein;
#X obj 640 -37 keyup;
#X obj 516 -47 *;
#X obj 516 -20 sel 0;
#X floatatom 543 3 5 0 0 0 - - -;
#X obj 516 -89 stripnote;
#X obj 103 -106 r \$0_on;
#X obj 543 133 s;
#X obj 640 116 makefilename __%s;
#X obj 400 55 tgl 24 0 \$0_edit empty Edit -36 12 0 14 -216682 -13381
-1 1 1;
#X obj 640 -7 sel 122;
#X obj 531 -67 r \$0_edit;
#X obj 702 -37 keyup;
#X obj 702 -7 sel 120;
#X obj 425 279 delay;
#X obj 640 53 counter 0 0 15;
#X floatatom 640 76 5 0 0 0 - - -;
#X msg 640 18 dec;
#X msg 702 20 inc;
#X obj 167 9 select 0 1 2 3 4 5 6 7 8 9 10 11 12 13 14 15;
#X obj 194 -95 expr 60000 / $f1;
#X floatatom 406 80 2 0 0 0 - #0_edpos -;
#X obj 648 96 s \$0_edpos;
#X obj 596 -111 keyup;
#X obj 596 -90 sel 127;
#X msg 596 -67 0;
#X connect 1 0 47 0;
#X connect 19 0 4 0;
#X connect 20 0 19 0;
#X connect 21 0 20 0;
#X connect 22 0 21 1;
#X connect 23 0 24 0;
#X connect 23 0 25 0;
#X connect 24 0 23 1;
#X connect 25 0 78 0;
#X connect 27 0 26 0;
#X connect 28 0 58 0;
#X connect 28 0 73 0;
#X connect 31 0 1 0;
#X connect 32 0 1 0;
#X connect 33 0 1 0;
#X connect 34 0 1 0;
#X connect 35 0 1 0;
#X connect 36 0 1 0;
#X connect 37 0 1 0;
#X connect 38 0 1 0;
#X connect 39 0 1 0;
#X connect 40 0 1 0;
#X connect 41 0 1 0;
#X connect 42 0 1 0;
#X connect 43 0 1 0;
#X connect 44 0 1 0;
#X connect 45 0 1 0;
#X connect 46 0 1 0;
#X connect 47 1 28 0;
#X connect 47 1 21 0;
#X connect 48 0 79 0;
#X connect 49 0 73 1;
#X connect 52 0 23 0;
#X connect 53 0 55 1;
#X connect 53 0 57 0;
#X connect 54 0 56 1;
#X connect 54 0 57 0;
#X connect 55 0 49 0;
#X connect 56 0 49 1;
#X connect 57 0 55 0;
#X connect 57 0 56 0;
#X connect 58 0 26 0;
#X connect 59 0 64 0;
#X connect 59 1 64 1;
#X connect 60 0 69 0;
#X connect 61 0 62 0;
#X connect 62 1 63 0;
#X connect 63 0 66 0;
#X connect 64 0 61 0;
#X connect 65 0 52 0;
#X connect 67 0 66 1;
#X connect 69 0 76 0;
#X connect 70 0 61 1;
#X connect 71 0 72 0;
#X connect 72 0 77 0;
#X connect 73 0 27 0;
#X connect 74 0 75 0;
#X connect 75 0 67 0;
#X connect 75 0 81 0;
#X connect 76 0 74 0;
#X connect 77 0 74 0;
#X connect 78 0 2 0;
#X connect 78 1 3 0;
#X connect 78 2 5 0;
#X connect 78 3 6 0;
#X connect 78 4 7 0;
#X connect 78 5 8 0;
#X connect 78 6 9 0;
#X connect 78 7 10 0;
#X connect 78 8 11 0;
#X connect 78 9 12 0;
#X connect 78 10 13 0;
#X connect 78 11 14 0;
#X connect 78 12 15 0;
#X connect 78 13 16 0;
#X connect 78 14 17 0;
#X connect 78 15 18 0;
#X connect 79 0 52 1;
#X connect 79 0 51 0;
#X connect 82 0 83 0;
#X connect 83 0 84 0;
#X connect 84 0 63 0;
#X coords 0 -1 1 1 400 100 1 100 50;
