#N canvas 404 279 1178 771 10;
#X obj 189 398 r vcf_r;
#X obj 461 173 r note_v;
#X obj 559 12 s vcf_r;
#X obj 471 12 s vcf_f;
#X obj 275 277 noise~;
#X obj 45 363 mix4~ . . .;
#X obj 44 298 r m1;
#X obj 119 298 r m2;
#X obj 181 298 r m3;
#X obj 467 122 s m1;
#X obj 532 122 s m2;
#X obj 597 122 s m3;
#X obj 159 126 +;
#X obj 271 468 s lfo;
#X obj 159 37 r lfo;
#X obj 159 82 *;
#X obj 414 353 r note_v;
#X obj 271 374 lfo~ 3;
#X obj 159 206 osc-saw~;
#X obj 174 59 r pitch_mod;
#X obj 1055 12 s pw;
#X obj 393 108 s note_v;
#X obj 969 12 s port;
#X obj 250 55 midi-key;
#X obj 250 33 r port;
#X obj 889 12 s lfo_rate;
#X obj 271 352 r lfo_rate;
#X obj 635 12 s vcf_env;
#X obj 922 122 s pw_mod_e;
#X obj 998 122 s pw_mod_l;
#X obj 565 359 s~ env_;
#X obj 486 359 unsig~ 40;
#X obj 486 384 s env;
#X obj 723 12 s vcf_lfo;
#X obj 107 524 r~ env_;
#X obj 811 12 s vcf_key;
#X obj 250 110 s pitch;
#X obj 711 390 r vcf_f;
#X obj 696 457 +;
#X obj 661 364 r lfo;
#X obj 687 411 *;
#X obj 715 480 +;
#X obj 730 456 *;
#X obj 745 434 r vcf_env;
#X obj 702 364 r vcf_lfo;
#X obj 730 412 r env;
#X obj 715 574 +;
#X obj 730 524 *;
#X obj 730 501 r pitch;
#X obj 784 502 r vcf_key;
#X obj 210 505 display;
#X obj 521 173 r a1;
#X obj 557 173 r a2;
#X obj 593 173 r a3;
#X obj 629 173 r a4;
#X obj 153 524 r vol;
#X obj 342 352 r lfo_shape;
#X obj 668 122 s a1;
#X obj 750 122 s a2;
#X obj 832 122 s a4;
#X obj 715 598 clip 0 10000;
#X obj 117 397 r vcf_cut;
#X obj 715 621 s vcf_cut;
#X obj 547 476 *;
#X obj 547 426 r lfo;
#X obj 562 501 r pw;
#X obj 547 546 +;
#X obj 562 523 clip 0.01 0.99;
#X obj 562 451 r pw_mod_l;
#X obj 462 533 *;
#X obj 476 512 r pw_mod_e;
#X obj 462 489 r env;
#X obj 532 571 +;
#X obj 532 596 s pwm;
#X obj 122 159 r pwm;
#X obj 174 159 r fat;
#X obj 244 187 osc-pulse~ 0.5;
#X obj 486 196 adsr~;
#X obj 665 229 s m4;
#X obj 771 331 s fat;
#X obj 889 229 s lfo_shape;
#X obj 777 229 s a3;
#X obj 665 331 s pitch_mod;
#X obj 387 165 r pw2;
#X obj 877 331 s pw2;
#X obj 159 181 +;
#X obj 878 455 s sub_oct;
#X obj 878 434 + 2;
#X obj 259 133 r sub_oct;
#X obj 244 165 / 2;
#X obj 46 419 filt~;
#X obj 394 20 s note_v;
#X obj 1 19 s pitch;
#X obj -21 182 osc-pulse~;
#X obj 1 -107 r port;
#X obj 777 150 midi-b 36 52 0.1 1;
#X obj 1055 -66 midi-c 23 1;
#X obj 771 252 midi-b 59 58 1 20;
#X obj 878 356 midi-b 62 61 2 2;
#X obj 665 150 midi-b 34 50 0.1 1;
#X obj 889 150 midi-b 37 53 1 5;
#X obj 665 252 midi-b 38 54 2 50;
#X obj 877 252 midi-b 39 55 0.1 1;
#X obj 1004 150 bank PATCH1;
#X obj 471 -66 midi-c 16 2000;
#X obj 532 44 midi-c 1 1;
#X obj 998 44 midi-c 7 0.5;
#X obj 723 -66 midi-c 19 2000;
#X obj 668 44 midi-c 3 2000;
#X obj 811 -66 midi-c 20 5;
#X obj 635 -66 midi-c 18 2000;
#X obj 889 -66 midi-c 21 20;
#X obj 559 -66 midi-c 17 4;
#X obj 467 44 midi-c 0 1;
#X obj 597 44 midi-c 2 1;
#X obj 969 -66 midi-c 22 200;
#X obj 922 44 midi-c 6 0.5;
#X obj 750 44 midi-c 4 2000;
#X obj 832 44 midi-c 5 2000;
#X obj 1004 200 bank PATCH2;
#X obj 1004 250 bank PATCH3;
#X obj 1004 300 bank PATCH4;
#X obj 181 361 sel 0;
#X obj 181 342 r note_v;
#X obj 1 -86 sequencer16;
#X obj 715 550 +;
#X obj 19 543 output 1 1;
#X obj 326 279 r m4;
#X obj 174 105 r pitch;
#X connect 0 0 90 2;
#X connect 1 0 77 0;
#X connect 4 0 5 6;
#X connect 5 0 90 0;
#X connect 6 0 5 1;
#X connect 7 0 5 3;
#X connect 8 0 5 5;
#X connect 12 0 85 0;
#X connect 12 0 89 0;
#X connect 12 0 93 0;
#X connect 14 0 15 0;
#X connect 15 0 12 0;
#X connect 16 0 17 2;
#X connect 17 0 13 0;
#X connect 18 0 5 2;
#X connect 19 0 15 1;
#X connect 23 0 36 0;
#X connect 23 1 21 0;
#X connect 24 0 23 0;
#X connect 26 0 17 0;
#X connect 31 0 32 0;
#X connect 34 0 126 2;
#X connect 37 0 38 1;
#X connect 38 0 41 0;
#X connect 39 0 40 0;
#X connect 40 0 38 0;
#X connect 41 0 125 0;
#X connect 42 0 41 1;
#X connect 43 0 42 1;
#X connect 44 0 40 1;
#X connect 45 0 42 0;
#X connect 46 0 60 0;
#X connect 47 0 125 1;
#X connect 48 0 47 0;
#X connect 49 0 47 1;
#X connect 51 0 77 1;
#X connect 52 0 77 2;
#X connect 53 0 77 3;
#X connect 54 0 77 4;
#X connect 55 0 126 3;
#X connect 56 0 17 1;
#X connect 60 0 62 0;
#X connect 61 0 90 1;
#X connect 63 0 66 0;
#X connect 64 0 63 0;
#X connect 65 0 67 0;
#X connect 66 0 72 1;
#X connect 67 0 66 1;
#X connect 68 0 63 1;
#X connect 69 0 72 0;
#X connect 70 0 69 1;
#X connect 71 0 69 0;
#X connect 72 0 73 0;
#X connect 74 0 93 1;
#X connect 75 0 85 1;
#X connect 76 0 5 4;
#X connect 77 0 30 0;
#X connect 77 0 31 0;
#X connect 83 0 76 1;
#X connect 85 0 18 0;
#X connect 87 0 86 0;
#X connect 88 0 89 1;
#X connect 89 0 76 0;
#X connect 90 0 126 0;
#X connect 90 0 126 1;
#X connect 93 0 5 0;
#X connect 94 0 124 0;
#X connect 95 0 81 0;
#X connect 96 0 20 0;
#X connect 97 0 79 0;
#X connect 98 0 87 0;
#X connect 99 0 78 0;
#X connect 100 0 80 0;
#X connect 101 0 82 0;
#X connect 102 0 84 0;
#X connect 104 0 3 0;
#X connect 105 0 10 0;
#X connect 106 0 29 0;
#X connect 107 0 33 0;
#X connect 108 0 57 0;
#X connect 109 0 35 0;
#X connect 110 0 27 0;
#X connect 111 0 25 0;
#X connect 112 0 2 0;
#X connect 113 0 9 0;
#X connect 114 0 11 0;
#X connect 115 0 22 0;
#X connect 116 0 28 0;
#X connect 117 0 58 0;
#X connect 118 0 59 0;
#X connect 122 1 5 8;
#X connect 123 0 122 0;
#X connect 124 0 92 0;
#X connect 124 1 91 0;
#X connect 125 0 46 0;
#X connect 126 1 50 0;
#X connect 127 0 5 7;
#X connect 128 0 12 1;
#X coords 0 771 1 770 85 60 0;
