#N canvas 382 204 810 498.094 10;
#X obj 10 40 hsl 102 20 0 127 0 0 \$0_val empty \$4 20 8 1 14 #a9c1e9
#1d3a81 #ffffff 0 1;
#X obj 10 10 ctlin \$1;
#X obj 118 40 nbx 3 12 0 127 0 0 empty \$0_val empty 0 0 1 10 #ffffff
#3f5094 #000000 0 256 3;
#X obj 10 141 outlet;
#X obj 10 100 / 127;
#X obj 10 80 r \$0_val;
#X obj 10 121 expr \$2+($f1*(\$3-\$2));
#X text 170 90 MIDI CC Helper \; ;
#X connect 1 0 0 0;
#X connect 4 0 6 0;
#X connect 5 0 4 0;
#X connect 6 0 3 0;
#X coords 0 -1 1 1 145 28 1 6 36;
