#N canvas 507 261 752 402.094 10;
#X msg 10 50 1;
#X obj 30 100 line~;
#X obj 30 160 outlet~;
#X obj 70 10 inlet;
#X obj 50 50 pack 0 f;
#X obj 10 10 inlet;
#X obj 30 130 pow~ \$1;
#X obj 120 10 cnv 15 226 76 empty empty empty 20 12 0 14 #e0e0e0 #404040
0;
#X text 120 10 Simple release envelope with no attack or sustain \;
inlet 1 - trigger bang \; inlet 2 - release time (ms) \; param 1
- exp curve power, f 37;
#X connect 0 0 1 0;
#X connect 1 0 6 0;
#X connect 3 0 4 1;
#X connect 4 0 1 0;
#X connect 5 0 0 0;
#X connect 5 0 4 0;
#X connect 6 0 2 0;
